<?xml version="1.0" standalone="no"?>
<!DOCTYPE svg PUBLIC "-//W3C//DTD SVG 20010904//EN"
 "http://www.w3.org/TR/2001/REC-SVG-20010904/DTD/svg10.dtd">
<svg version="1.0" xmlns="http://www.w3.org/2000/svg"
 width="700.000000pt" height="700.000000pt" viewBox="0 0 700.000000 700.000000"
 preserveAspectRatio="xMidYMid meet">
<metadata>
Created by potrace 1.14, written by Peter Selinger 2001-2017
</metadata>
<g transform="translate(0.000000,700.000000) scale(0.100000,-0.100000)"
fill="#000000" stroke="none">
<path d="M2530 6075 l0 -925 33 -1 c17 0 453 0 967 -1 l935 0 3 926 2 926
-970 0 -970 0 0 -925z"/>
<path d="M2532 2984 l3 -1895 230 -130 c127 -72 262 -147 300 -168 137 -75
240 -134 267 -152 14 -11 29 -19 33 -19 3 0 37 -17 73 -39 37 -21 87 -49 112
-63 49 -27 271 -152 335 -188 22 -13 60 -34 85 -48 25 -14 74 -42 110 -62 76
-43 124 -70 278 -156 l112 -62 0 1868 0 1868 -107 63 c-60 35 -117 68 -128 74
-11 6 -38 23 -60 37 -22 13 -60 36 -85 50 -36 20 -410 241 -470 277 -8 5 -112
67 -230 136 -118 70 -226 135 -240 144 -14 8 -34 21 -45 27 -29 16 -408 240
-492 290 -39 24 -74 44 -77 44 -3 0 -5 -853 -4 -1896z"/>
</g>
</svg>
